<svg xmlns="http://www.w3.org/2000/svg" xmlns:xlink="http://www.w3.org/1999/xlink" viewBox="0 0 171 32"><defs><path id="b" d="M.051.042h16.986v13.871H.051z"/><path id="d" d="M0 .032h17.007V13.9H0z"/><linearGradient id="a" x1="68.3%" x2="31.038%" y1="96.973%" y2="4.651%"><stop offset="0%" stop-color="#610FE2"/><stop offset="100%" stop-color="#A047FF"/></linearGradient></defs><g fill="none" fill-rule="evenodd"><path fill="#000" fill-opacity=".87" fill-rule="nonzero" d="M46.037 18.531c0 .708-.18 1.338-.54 1.887-.359.55-.877.977-1.554 1.281-.678.305-1.472.457-2.383.457-.76 0-1.399-.053-1.914-.16a7.11 7.11 0 01-1.61-.559v-2.75c.59.302 1.2.538 1.837.707.635.17 1.218.255 1.75.255.458 0 .794-.08 1.007-.239a.733.733 0 00.32-.613.673.673 0 00-.129-.41 1.5 1.5 0 00-.413-.356c-.19-.12-.697-.364-1.52-.734-.745-.339-1.303-.667-1.676-.984a3.022 3.022 0 01-.828-1.094c-.18-.412-.27-.899-.27-1.461 0-1.052.383-1.873 1.15-2.461.765-.589 1.817-.883 3.155-.883 1.182 0 2.388.273 3.618.82l-.946 2.383c-1.068-.49-1.99-.734-2.766-.734-.4 0-.692.07-.874.211a.636.636 0 00-.274.523c0 .224.116.424.348.602.232.177.86.5 1.886.968.985.443 1.668.918 2.051 1.426.383.508.575 1.147.575 1.918zm.515-5.382h3.219l1.5 5.078c.073.265.122.586.148.96h.063a5.32 5.32 0 01.187-.945l1.54-5.093h3.116l-3.5 9.413c-.448 1.199-.998 2.045-1.652 2.54-.653.495-1.506.742-2.558.742-.407 0-.823-.045-1.25-.133v-2.398c.276.063.591.094.945.094.27 0 .508-.052.71-.156.204-.104.38-.252.532-.442.151-.19.313-.501.485-.933l-3.485-8.727zM68.247 22v-4.813c0-.598-.082-1.048-.246-1.347-.164-.3-.423-.45-.777-.45-.469 0-.813.2-1.031.602-.219.401-.328 1.029-.328 1.883V22h-3.063v-4.813c0-.598-.078-1.048-.234-1.347-.157-.3-.41-.45-.758-.45-.48 0-.828.214-1.047.64-.219.429-.328 1.126-.328 2.095V22H57.38v-8.851h2.305l.383 1.093h.18a2.283 2.283 0 011.019-.929c.445-.213.952-.32 1.52-.32 1.276 0 2.171.388 2.686 1.164h.243c.25-.365.598-.65 1.043-.856.463-.21.965-.314 1.473-.308 1.047 0 1.82.268 2.32.804.5.537.75 1.352.75 2.446V22h-3.055zm10.54-9.008c.963 0 1.727.404 2.293 1.211.565.807.847 1.924.847 3.352 0 1.437-.285 2.564-.856 3.378-.57.816-1.362 1.223-2.378 1.223-.328 0-.62-.035-.875-.105a2.579 2.579 0 01-.684-.294c-.2-.124-.433-.333-.7-.624h-.186l-.485.867h-2.384V9.844h3.055v2.75c0 .328-.036.893-.11 1.695h.11c.297-.458.64-.789 1.027-.992.388-.203.83-.305 1.325-.305zm-1.118 2.399c-.426 0-.74.148-.937.445-.198.297-.297.763-.297 1.399v.429c0 .724.099 1.243.297 1.559.198.315.52.472.969.472.359 0 .635-.183.828-.55.192-.368.289-.908.289-1.622 0-1.422-.383-2.133-1.149-2.133zm14.454 2.164c0 1.448-.39 2.576-1.168 3.386-.779.81-1.869 1.215-3.27 1.215-1.344 0-2.413-.413-3.207-1.242-.795-.828-1.191-1.948-1.191-3.36 0-1.442.389-2.563 1.168-3.363.778-.8 1.87-1.199 3.277-1.199.87 0 1.638.185 2.305.555a3.787 3.787 0 011.542 1.59c.362.69.544 1.496.544 2.418zm-5.735 0c0 .76.101 1.34.305 1.738.203.398.544.598 1.023.598.474 0 .809-.2 1.004-.598.195-.398.293-.978.293-1.738 0-.756-.099-1.326-.297-1.711-.198-.386-.536-.579-1.015-.579-.469 0-.805.192-1.008.575-.204.383-.305.954-.305 1.715zM96.919 22h-3.054V9.844h3.054V22zm6.454-11.422h3.984c1.552 0 2.704.23 3.457.691.753.462 1.129 1.179 1.129 2.153 0 .64-.164 1.187-.492 1.64-.31.441-.772.753-1.298.875v.078c.709.188 1.222.5 1.54.938.318.438.476 1.005.476 1.703 0 1.037-.389 1.853-1.168 2.45-.778.596-1.84.894-3.183.894h-4.445V10.578zm3.086 4.383h.929c.443 0 .785-.091 1.027-.274.242-.182.364-.453.364-.812 0-.64-.485-.961-1.454-.961h-.866v2.047zm0 2.258v2.398h1.085c.964 0 1.445-.406 1.445-1.218 0-.38-.128-.672-.386-.876-.258-.203-.632-.304-1.121-.304h-1.024zm12.859-4.227c.265 0 .518.021.757.063l.172.031-.273 2.883c-.25-.063-.597-.094-1.04-.094-.666 0-1.15.152-1.453.457-.301.305-.452.743-.452 1.317V22h-3.055v-8.851h2.273l.477 1.413h.149a3.059 3.059 0 011.066-1.136c.456-.29.915-.433 1.379-.433v-.001zm10.297 4.563c0 1.448-.39 2.576-1.168 3.386-.779.81-1.869 1.215-3.27 1.215-1.344 0-2.413-.413-3.206-1.242-.795-.828-1.192-1.948-1.192-3.36 0-1.442.389-2.563 1.168-3.363.778-.8 1.871-1.199 3.277-1.199.87 0 1.638.185 2.305.555a3.787 3.787 0 011.542 1.59c.362.69.544 1.496.544 2.418zm-5.735 0c0 .76.102 1.34.305 1.738.203.398.544.598 1.024.598.473 0 .808-.2 1.003-.598.195-.398.293-.978.293-1.738 0-.756-.099-1.326-.297-1.711-.197-.386-.536-.579-1.015-.579-.469 0-.805.192-1.008.575-.203.383-.305.954-.305 1.715zM138.653 22l-1-4.219-.234-1.273-.156-1.023h-.046c-.256 1.458-.428 2.377-.516 2.757L135.802 22h-3.21l-2.415-8.851h3.008l.718 3.398c.23 1.166.362 2.135.399 2.906h.047c.016-.48.159-1.39.43-2.734l.82-3.57h3.375l.75 3.616c.24 1.152.39 2.047.453 2.688h.047c.031-.396.083-.889.156-1.48.073-.592.153-1.067.243-1.426l.78-3.398h2.946L141.92 22h-3.266zm13.782-2.719c0 .948-.323 1.664-.969 2.149-.646.484-1.573.727-2.781.727-.656 0-1.227-.036-1.711-.106a7.268 7.268 0 01-1.485-.387v-2.445c.474.208.994.38 1.559.516.565.135 1.07.202 1.512.202.661 0 .992-.15.992-.453 0-.156-.093-.295-.277-.417-.185-.123-.723-.361-1.614-.716-.812-.333-1.38-.712-1.702-1.136-.324-.424-.485-.962-.485-1.614 0-.822.317-1.463.953-1.921.636-.459 1.534-.688 2.696-.688.583 0 1.131.064 1.644.191a9.818 9.818 0 011.598.559l-.828 1.969a9.305 9.305 0 00-1.29-.465c-.453-.127-.822-.191-1.109-.191-.5 0-.75.122-.75.366 0 .152.087.28.262.387.174.107.678.325 1.511.653.62.255 1.082.505 1.387.75.292.228.523.524.672.863.143.33.215.733.215 1.207zm5.968 2.875c-1.473 0-2.618-.392-3.433-1.175-.815-.784-1.223-1.9-1.223-3.348 0-1.495.378-2.642 1.134-3.442.754-.8 1.833-1.199 3.233-1.199 1.333 0 2.364.348 3.09 1.043.727.696 1.09 1.697 1.09 3.004v1.36h-5.46c.02.494.201.882.542 1.164.341.281.807.422 1.395.422.497.004.994-.048 1.48-.153.451-.101.939-.275 1.465-.52v2.196a5.39 5.39 0 01-1.484.507c-.51.094-1.12.141-1.829.141zm-.18-7.086c-.358 0-.66.113-.902.34-.242.227-.384.582-.425 1.067h2.625c-.01-.427-.132-.768-.364-1.024-.231-.255-.542-.383-.933-.383zm11.142-2.078c.265 0 .518.021.758.063l.171.031-.273 2.883c-.25-.063-.596-.094-1.039-.094-.667 0-1.151.152-1.453.457-.302.305-.454.743-.454 1.317V22h-3.054v-8.851h2.273l.477 1.413h.148a3.059 3.059 0 011.067-1.136c.455-.29.915-.433 1.379-.433v-.001z"/><path fill="#D8D8D8" fill-rule="nonzero" d="M16 32c15.877 0 16-7.163 16-16S31.877 0 16 0 0 7.163 0 16s.123 16 16 16z"/><path fill="url(#a)" fill-rule="nonzero" d="M16 32c15.877 0 16-7.163 16-16S31.877 0 16 0 0 7.163 0 16s.123 16 16 16z"/><g transform="scale(-1 1) rotate(-24 21.396 61.7)"><mask id="c" fill="#fff"><use xlink:href="#b"/></mask><path fill="#FFF" fill-rule="nonzero" d="M.051 10.041c.784 0 1.5.008 2.214-.002 1.204-.015 2.409-.01 3.611-.074 1.048-.056 2.023-.404 2.838-1.08.683-.565 1.094-1.296 1.096-2.22 0-.262-.104-.341-.343-.338-.92.011-1.84.016-2.76.021-.097 0-.194-.01-.378-.023L11.875.042c.224.253.429.485.632.718 1.432 1.643 2.866 3.285 4.293 4.932.101.117.159.271.237.408-.16.033-.32.091-.48.096-.78.02-1.56.025-2.34.035-.178.002-.248.078-.26.266-.047.715-.097 1.428-.35 2.112-.396 1.073-1.082 1.945-1.855 2.765a6.734 6.734 0 01-2.32 1.622c-.562.233-1.151.41-1.738.578-1.39.4-2.823.297-4.243.339-.097.003-.23-.04-.288-.11-.987-1.164-1.966-2.336-2.945-3.508-.045-.054-.079-.119-.167-.254" mask="url(#c)"/></g><g transform="scale(-1 1) rotate(-24 13.515 77.628)"><mask id="e" fill="#fff"><use xlink:href="#d"/></mask><path fill="#FFF" fill-rule="nonzero" d="M17.007 3.89H14.86c-.994 0-1.987-.024-2.98.01-1.19.04-2.348.265-3.338.974-.852.61-1.344 1.442-1.325 2.527.004.217.158.218.307.223l2.704.073c.096.002.193.014.378.027L5.157 13.9l-1.25-1.437C2.685 11.063 1.462 9.665.245 8.26.14 8.14.081 7.977 0 7.833c.16-.03.32-.082.482-.087.78-.02 1.56-.028 2.339-.037.188-.002.243-.094.255-.276.049-.704.1-1.406.345-2.084.391-1.087 1.093-1.958 1.866-2.788C6.14 1.645 7.193 1.074 8.35.645 9.33.28 10.347.114 11.384.069c.717-.029 1.434-.04 2.152-.037a.52.52 0 01.353.145c.88 1.002 1.75 2.013 2.617 3.026.165.194.301.412.501.688" mask="url(#e)"/></g></g></svg>