<svg xmlns="http://www.w3.org/2000/svg" xmlns:xlink="http://www.w3.org/1999/xlink" width="102" height="121"><defs><path id="b" d="M61 1h25.293C94.025 1 101 7.975 101 15.707V41L61 1z"/><filter id="a" width="117.5%" height="117.5%" x="-8.7%" y="-11.2%" filterUnits="objectBoundingBox"><feOffset dy="-1" in="SourceAlpha" result="shadowOffsetOuter1"/><feGaussianBlur in="shadowOffsetOuter1" result="shadowBlurOuter1" stdDeviation="1"/><feComposite in="shadowBlurOuter1" in2="SourceAlpha" operator="out" result="shadowBlurOuter1"/><feColorMatrix in="shadowBlurOuter1" values="0 0 0 0 0 0 0 0 0 0 0 0 0 0 0 0 0 0 0.12 0"/></filter></defs><g fill="none" fill-rule="evenodd"><path fill="#3D5AFE" d="M60 1l40 40v66c0 7.732-6.268 14-14 14H14c-7.732 0-14-6.268-14-14V15C0 7.268 6.268 1 14 1h46z"/><g transform="rotate(180 80.5 21)"><use fill="#000" filter="url(#a)" xlink:href="#b"/><use fill="#FFF" fill-opacity=".12" xlink:href="#b"/></g><path stroke="#FFF" stroke-linecap="round" stroke-linejoin="round" stroke-opacity=".87" stroke-width="2" d="M49.83 52l-14.416 1.342-.689 15.078L49.83 52zm.128 0l14.416 1.342.689 15.078L49.958 52zM34.839 68.73h30.213L49.975 98.308 34.839 68.73zm-10.678-.228l11.173-14.873-.492 14.873h-10.68zm51.244-.05L64.422 53.677l.492 14.872 10.491-.097zm-40.566-.006h30.086L49.882 52.199 34.839 68.446zM49.927 98.69L34.742 68.596H24L49.927 98.69zm-.076-.065L65.036 68.53h10.589L49.85 98.625z"/></g></svg>